<svg width="24" height="24" viewBox="0 0 24 24" fill="none" xmlns="http://www.w3.org/2000/svg"><path d="M8.75 10.5a1.75 1.75 0 1 0 0-3.5 1.75 1.75 0 0 0 0 3.5Z" fill="currentColor"></path><path fill-rule="evenodd" clip-rule="evenodd" d="M10 16h3v-3h3v-3h5V7a4 4 0 0 0-4-4H7a4 4 0 0 0-4 4v10a4 4 0 0 0 4 4h3v-5Zm-1.5 3.5v-5h3v-3h3v-3h5V7A2.5 2.5 0 0 0 17 4.5H7A2.5 2.5 0 0 0 4.5 7v10A2.5 2.5 0 0 0 7 19.5h1.5Z" fill="currentColor"></path><path fill-rule="evenodd" clip-rule="evenodd" d="M22 11.5V18a4 4 0 0 1-4 4h-6.5v-4.5h3v-3h3v-3H22ZM13 19v1.5h5a2.5 2.5 0 0 0 2.5-2.5v-5H19v3h-3v3h-3Z" fill="currentColor"></path></svg>